HIERARCHY
ROOT Hips
{
  OFFSET 0 0 0
  CHANNELS 6 Xposition Yposition Zposition Zrotation Xrotation Yrotation
  JOINT Spine
  {
    OFFSET 0.00000000 0.00000000 0.00000000
    CHANNELS 3 Zrotation Xrotation Yrotation
    JOINT Spine1
    {
      OFFSET 0.19000000 0.00000000 0.00000000
      CHANNELS 3 Zrotation Xrotation Yrotation
      JOINT Neck
      {
        OFFSET 0.22500000 0.00600000 0.00000000
        CHANNELS 3 Zrotation Xrotation Yrotation
        JOINT Head
        {
          OFFSET 0.14000000 0.00030878 0.00000000
          CHANNELS 3 Zrotation Xrotation Yrotation
          End Site
          {
            OFFSET 0.17000000 0.00000000 0.00000000
          }
        }
      }
      JOINT LeftShoulder
      {
        OFFSET 0.19800000 0.03700000 0.04300000
        CHANNELS 3 Zrotation Xrotation Yrotation
        JOINT LeftArm
        {
          OFFSET 0.08000000 0.00000000 0.00000000
          CHANNELS 3 Zrotation Xrotation Yrotation
          JOINT LeftForeArm
          {
            OFFSET 0.15200000 0.00000000 0.00000000
            CHANNELS 3 Zrotation Xrotation Yrotation
            JOINT LeftHand
            {
              OFFSET 0.17800000 0.00000000 0.00000000
              CHANNELS 3 Zrotation Xrotation Yrotation
              End Site
              {
                OFFSET 0.07200000 0.00000000 0.00000000
              }
            }
          }
        }
      }
      JOINT RightShoulder
      {
        OFFSET 0.19800000 0.03700000 -0.04300000
        CHANNELS 3 Zrotation Xrotation Yrotation
        JOINT RightArm
        {
          OFFSET 0.08000000 0.00000000 0.00151654
          CHANNELS 3 Zrotation Xrotation Yrotation
          JOINT RightForeArm
          {
            OFFSET 0.15200000 0.00000000 0.00000000
            CHANNELS 3 Zrotation Xrotation Yrotation
            JOINT RightHand
            {
              OFFSET 0.17800000 0.00000000 0.00000000
              CHANNELS 3 Zrotation Xrotation Yrotation
              End Site
              {
                OFFSET 0.07200000 0.00000000 0.00000000
              }
            }
          }
        }
      }
    }
  }
  JOINT LeftUpLeg
  {
    OFFSET 0.05984250 -0.07666000 0.04788790
    CHANNELS 3 Zrotation Xrotation Yrotation
    JOINT LeftLeg
    {
      OFFSET 0.16000000 0.00000000 0.00000000
      CHANNELS 3 Zrotation Xrotation Yrotation
      JOINT LeftFoot
      {
        OFFSET 0.18000000 0.00000000 0.00000000
        CHANNELS 3 Zrotation Xrotation Yrotation
        End Site
        {
          OFFSET 0.00000000 -0.10800000 0.00000000
        }
      }
    }
  }
  JOINT RightUpLeg
  {
    OFFSET 0.05984250 -0.07665980 -0.04788790
    CHANNELS 3 Zrotation Xrotation Yrotation
    JOINT RightLeg
    {
      OFFSET 0.16000000 0.00000000 0.00000000
      CHANNELS 3 Zrotation Xrotation Yrotation
      JOINT RightFoot
      {
        OFFSET 0.18000000 0.00000000 0.00000000
        CHANNELS 3 Zrotation Xrotation Yrotation
        End Site
        {
          OFFSET 0.00000000 -0.10800000 0.00000000
        }
      }
    }
  }
  JOINT Tail
  {
    OFFSET 0.06836960 -0.00722574 0.00000000
    CHANNELS 3 Zrotation Xrotation Yrotation
    JOINT Tail1
    {
      OFFSET 0.12000000 0.00000000 0.00000000
      CHANNELS 3 Zrotation Xrotation Yrotation
      End Site
      {
        OFFSET 0.12000000 0.00000000 0.00000000
      }
    }
  }
}
MOTION
Frames:	17
Frame Time:	0.0166667
0.0000000 0.4593150 0.0000000 -7.97052 14.0595 1.94811 -155.498 9.42383 -10.9469 -24.6824 -1.99056 35.4591 -14.1537 2.42303 11.2795 -125.148 61.8188 129.767 -111.228 -36.1667 -141.137 121.207 -45.1905 -132.772 -60.6618 13.7768 -7.07267 -2.90536 0.898547 -11.4146 76.4254 -28.6247 45.3635 38.8094 -40.0805 -43.7793 -62.3112 -21.2517 6.00401 -7.48209 -0.0666791 3.70281 -126.215 -1.70676 -25.8669 81.1504 4.8447 9.36806 35.3115 -1.90832 -4.3433 -125.863 0.412203 1.7608 70.1533 -1.64345 -4.46492 57.8272 0.257096 -2.31256 -24.8145 -8.97156 -60.7874 9.64356 26.2497 -10.0187 
-0.0005646 0.4596080 0.0006430 -7.56514 14.3161 0.75962 -155.219 9.48994 -11.2733 -25.455 -1.83338 34.9813 -14.0311 2.46174 10.3228 -124.702 62.0096 129.779 -110.956 -35.8953 -140.972 120.909 -45.3713 -133.11 -60.6584 13.5152 -7.07597 -2.85072 0.862793 -11.1065 76.4746 -28.4817 45.1915 38.9571 -40.4779 -43.6378 -62.7365 -21.4852 5.81598 -7.46455 -0.098274 3.96565 -126.256 -1.94847 -25.9823 81.1891 4.11737 9.5314 35.3611 -1.79769 -4.18121 -125.879 0.143333 1.51274 69.5527 -2.23861 -4.2936 57.9947 0.389422 -2.22228 -20.5764 -9.07391 -64.7082 11.0589 23.1015 -11.1092 
-0.0012913 0.4601380 0.0012858 -7.03763 14.4892 -0.77869 -154.935 9.50629 -11.2578 -26.1747 -1.43432 33.6936 -14.0853 2.27966 9.39595 -123.787 61.9419 129.688 -110.838 -35.9379 -140.578 120.697 -45.8904 -133.313 -60.5943 13.3967 -6.97334 -2.93761 0.791179 -10.6562 76.4965 -28.3369 44.908 39.2327 -41.3284 -43.0383 -63.6379 -21.4991 5.3649 -7.34563 -0.156471 4.50865 -126.288 -2.31717 -26.0123 81.201 3.18818 9.77276 35.4999 -1.66164 -3.98456 -126 -0.289902 0.992469 68.9795 -2.26948 -3.87218 58.2851 0.416118 -2.23052 -15.8488 -9.48242 -68.7625 13.9834 18.8162 -14.0598 
-0.0017806 0.4606730 0.0016418 -6.65715 14.2891 -2.03813 -154.619 9.33367 -10.8035 -26.7235 -1.12536 32.0105 -14.0649 1.95231 8.8296 -122.749 61.4742 129.383 -110.864 -36.0816 -140.358 120.705 -46.3408 -133.442 -60.4726 13.095 -6.86455 -2.86251 0.798305 -10.6443 76.4776 -28.2887 44.714 39.141 -42.5037 -42.5527 -64.4482 -21.0591 4.90637 -6.84091 -0.23124 5.20383 -126.26 -2.82172 -25.7585 81.1221 2.65788 9.97948 35.9058 -1.59826 -3.89509 -126.156 -0.914137 0.481858 68.7489 -1.76577 -3.29451 58.2822 0.287715 -2.34528 -13.66 -9.4051 -70.9242 18.3204 15.3649 -19.6125 
-0.0019776 0.4613730 0.0017689 -6.55932 14.0294 -3.05796 -154.042 9.06424 -10.3363 -27.2586 -0.907459 30.3801 -14.0425 1.61692 8.4583 -121.746 60.9076 129.151 -110.902 -36.1617 -140.298 120.703 -46.7193 -133.997 -60.4531 12.5723 -6.56886 -2.60742 0.85903 -10.9927 76.3763 -28.4051 44.6257 38.9455 -43.4362 -42.6592 -64.869 -21.1528 4.68352 -6.68056 -0.275816 5.75739 -125.974 -3.33891 -25.6648 80.9246 2.54247 10.227 36.4229 -1.61408 -3.92846 -126.235 -1.35784 0.0672868 68.6851 -1.05638 -2.81518 58.6391 0.166694 -2.47796 -15.6424 -8.62535 -71.5236 23.8888 14.559 -28.6748 
-0.0020422 0.4619630 0.0017741 -6.57492 13.8247 -3.76737 -153.557 8.79173 -9.61816 -27.546 -0.683994 28.6915 -13.854 0.975276 8.60896 -120.732 60.2448 128.51 -110.865 -36.2113 -140.103 119.858 -46.9304 -135.172 -60.5369 13.068 -6.36255 -2.64825 0.752215 -10.5487 76.3583 -28.3229 44.3481 38.7332 -43.9031 -42.902 -65.1582 -21.1147 4.54484 -6.3975 -0.281136 6.0261 -125.692 -3.7645 -25.6426 80.7308 2.38656 10.4474 36.8081 -1.63695 -3.96498 -126.133 -1.53955 -0.0909651 68.6397 -0.512554 -2.57715 58.7842 0.0882514 -2.56249 -22.386 -7.45493 -69.8387 29.3514 16.4615 -39.1555 
-0.0018925 0.4625020 0.0016089 -6.58985 13.5524 -4.15061 -153.314 8.57355 -8.62891 -27.5972 -0.427145 26.9454 -13.5935 -0.10703 9.28984 -119.151 59.3645 127.837 -110.946 -36.3296 -140.081 118.871 -46.9298 -136.211 -60.6928 13.4218 -6.27011 -2.76658 0.692965 -10.1768 76.3313 -28.2984 44.1839 38.3989 -44.2792 -43.3628 -65.2439 -20.951 4.49334 -6.08104 -0.277785 6.24785 -125.537 -4.20594 -25.5576 80.5004 2.24678 10.6418 37.0967 -1.6715 -4.01021 -126.092 -1.6797 0.0773645 68.7883 -0.347901 -2.53021 58.6299 0.063391 -2.58814 -30.8035 -6.78046 -66.2261 33.6149 22.3446 -47.4813 
-0.0016105 0.4629980 0.0012672 -6.68125 13.3176 -4.38935 -153.165 8.39904 -7.56479 -27.4013 -0.0766815 25.1373 -13.6011 -1.11267 10.0735 -117.37 58.0399 127.749 -111.172 -36.6081 -140.118 118.33 -46.8392 -136.552 -60.7416 13.1001 -6.32108 -2.73071 0.802376 -10.5407 76.1579 -28.58 44.2478 37.8883 -44.7858 -44.1812 -65.1904 -20.8527 4.47689 -5.88535 -0.301485 6.63693 -125.304 -4.49675 -25.4289 80.3299 2.12716 10.8002 37.2607 -1.69967 -4.0525 -125.893 -1.86275 0.165941 68.7907 -0.220157 -2.42555 58.6133 0.034203 -2.62207 -38.6885 -7.29493 -61.3628 35.5727 31.5848 -49.982 
-0.0015436 0.4629270 0.0007703 -6.67979 13.1736 -4.45612 -153.261 8.25178 -6.48306 -27.1979 0.1457 23.6062 -13.3956 -1.74529 10.6883 -115.893 56.4057 128.209 -111.052 -36.4052 -140.207 117.594 -46.6668 -137.65 -60.7715 12.9132 -6.29101 -2.60662 0.883136 -10.976 76.1211 -28.5671 44.0771 37.3385 -45.0468 -44.8806 -64.9479 -20.7951 4.43171 -5.6495 -0.297537 6.85049 -125.422 -4.56767 -25.3035 80.4542 1.98015 10.7759 37.4048 -1.70258 -4.05124 -125.763 -1.89114 0.376626 68.7477 -0.375555 -2.48617 58.4365 0.0491208 -2.61042 -44.6001 -8.8971 -56.2161 33.7821 40.6929 -46.2326 
-0.0016506 0.4625190 -0.0001512 -6.67014 13.0815 -4.62048 -153.547 8.04868 -5.90105 -26.8547 0.25227 22.5987 -13.1364 -2.31515 11.3977 -114.364 55.3667 129.007 -110.875 -36.0996 -140.35 116.988 -46.3311 -138.774 -60.6554 13.0149 -6.18663 -2.82623 0.885349 -10.9701 76.1437 -28.4967 43.9834 36.6287 -45.2721 -45.3371 -64.58 -20.7302 4.22202 -5.80932 -0.316608 7.06904 -125.771 -4.77391 -25.4921 80.8018 1.86846 10.7274 37.5835 -1.69484 -4.02413 -125.802 -1.92802 0.374146 68.8716 -0.41667 -2.46116 58.2355 0.0560379 -2.60207 -48.8911 -11.4933 -50.6418 29.2227 47.4266 -38.7692 
-0.0015504 0.4624620 -0.0013453 -6.91570 12.9921 -4.86021 -153.569 7.8152 -5.64747 -26.441 0.410037 21.7277 -13.0033 -3.00212 12.3705 -112.902 54.8583 129.603 -110.949 -36.1514 -140.44 116.499 -45.7473 -138.834 -60.3477 13.3668 -6.50205 -3.20578 0.844934 -10.4796 76.0771 -28.6955 44.2384 35.7754 -45.5398 -46.1308 -64.1186 -20.6046 4.10039 -5.99336 -0.332224 7.19679 -125.764 -5.09434 -25.8577 81.0893 1.88011 10.7621 37.7617 -1.71015 -4.0387 -125.699 -1.95211 0.226976 69.0159 -0.171 -2.34698 58.3082 0.0413103 -2.62326 -51.4366 -14.86 -44.504 22.3144 50.0308 -29.0099 
-0.0012525 0.4624760 -0.0026537 -7.23407 12.8852 -4.97405 -153.46 7.61111 -5.51088 -26.1804 0.475245 21.1419 -12.761 -3.79719 13.3712 -111.397 54.5212 129.91 -110.951 -36.1077 -140.534 116.17 -45.2191 -138.832 -60.1187 13.4714 -6.80815 -3.272 0.82766 -10.1801 76.0686 -28.7677 44.3877 35.1924 -45.6042 -46.7675 -63.7315 -20.3744 4.10513 -5.6874 -0.300976 7.04641 -125.56 -5.25195 -25.9719 81.312 1.84129 10.6842 37.7693 -1.71727 -4.04412 -125.435 -1.70795 0.46125 69.0572 -0.0757887 -2.53297 58.1632 0.0625767 -2.59294 -52.0195 -18.5865 -37.8642 14.0657 48.4122 -18.3984 
-0.0011728 0.4622970 -0.0042506 -7.48401 12.7844 -5.08165 -153.471 7.44154 -5.62816 -25.8637 0.504246 20.9246 -12.543 -4.76724 14.3754 -109.773 54.2829 129.879 -110.957 -36.0779 -140.609 116.249 -44.9197 -138.667 -59.855 13.4472 -6.94389 -3.24577 0.833812 -10.1387 76.1416 -28.7383 44.5853 34.9629 -45.5627 -47.0047 -63.6542 -20.3919 4.02107 -5.72918 -0.277411 6.83216 -125.374 -5.3188 -26.0079 81.5534 1.68097 10.5843 37.6308 -1.69762 -4.01032 -125.263 -1.46392 0.721021 69.2088 -0.126203 -2.74471 58.0355 0.107666 -2.54952 -51.6574 -22.5622 -30.6287 7.47773 42.803 -9.36416 
-0.0014180 0.4620360 -0.0061599 -7.63951 12.6574 -5.14992 -153.507 7.26717 -6.02019 -25.6786 0.374819 21.1972 -12.1741 -5.69107 15.2346 -108.514 54.0428 129.429 -110.974 -35.9941 -140.82 116.253 -44.9938 -139.15 -59.7979 13.5239 -6.7146 -3.23469 0.829734 -10.2937 76.237 -28.6582 44.7404 34.9745 -45.5037 -47.1 -63.7089 -20.2845 3.97672 -5.76566 -0.264076 6.56852 -125.354 -5.39267 -26.1473 81.8018 1.56189 10.5253 37.6316 -1.68121 -3.97987 -125.143 -1.34035 0.889246 69.4342 -0.310661 -2.87987 57.8017 0.153338 -2.49672 -50.4503 -26.5606 -22.7517 3.66157 34.6403 -2.92751 
-0.0017486 0.4620300 -0.0081811 -7.75061 12.4473 -5.12188 -153.498 7.086 -6.51855 -25.5727 0.133531 21.7564 -11.7481 -6.44595 16.168 -107.916 54.2472 128.648 -111.048 -35.9947 -141.014 116.232 -45.3268 -139.792 -59.9224 13.6084 -6.33685 -3.12889 0.840682 -10.6556 76.3076 -28.6445 44.9705 34.797 -45.5524 -47.2481 -63.8054 -19.9271 3.90888 -5.51332 -0.219775 6.17085 -125.378 -5.45405 -26.2835 81.9712 1.54979 10.478 37.8096 -1.68404 -3.9819 -125.008 -1.22628 1.13312 69.6273 -0.492895 -3.05082 57.2367 0.178713 -2.43231 -48.0674 -30.1909 -14.2492 2.42116 25.0267 1.10643 
-0.0022794 0.4623940 -0.0100447 -7.84365 12.2310 -4.92268 -153.249 6.96123 -6.89022 -25.8097 -0.143923 22.2914 -11.3226 -6.9434 17.131 -107.876 54.6447 127.886 -111.01 -35.9036 -141.098 116.457 -45.7212 -140.286 -59.9842 13.4442 -5.96307 -2.73531 0.898559 -11.2972 76.3915 -28.5921 45.1546 34.8311 -45.6517 -47.1864 -64.0938 -19.825 3.78176 -5.53497 -0.187852 5.83247 -125.224 -5.37601 -26.2997 81.8753 1.67698 10.4207 38.0113 -1.71111 -4.0259 -124.903 -1.03958 1.32163 69.7717 -0.302043 -3.20445 57.1655 0.163301 -2.43728 -44.426 -33.1433 -5.25063 2.73823 15.7223 3.60673 
-0.0032116 0.4627020 -0.0119601 -7.78359 12.0326 -4.58759 -153.185 6.88932 -7.16045 -25.9235 -0.417906 22.8965 -11.2234 -7.13492 17.8791 -108.03 55.2155 127.547 -111.058 -35.955 -141.119 116.616 -46.228 -140.579 -60.0798 13.6183 -5.64538 -2.56648 0.920251 -11.7861 76.3992 -28.6213 45.2564 35.0578 -45.768 -47.1683 -64.5362 -19.698 3.74198 -5.56352 -0.195555 5.68985 -125.163 -5.18139 -26.2989 81.675 1.89774 10.4087 38.3239 -1.75323 -4.0964 -124.848 -0.919538 1.31358 69.8849 -0.21491 -3.25498 57.0179 0.145956 -2.44257 -39.7614 -35.2072 4.14021 3.66251 7.96264 5.1564 
